<svg width="24" height="24" viewBox="0 0 24 24" fill="none" xmlns="http://www.w3.org/2000/svg">
<path d="M8.95958 3.33044L5.2525 7.49997H1C0.4475 7.49997 0 8.00341 0 8.62497V15.375C0 15.9961 0.4475 16.5 1 16.5H5.2525L8.95958 20.6695C9.58583 21.374 10.6667 20.879 10.6667 19.874V4.12591C10.6667 3.11997 9.585 2.62685 8.95958 3.33044ZM18.6813 0.936067C18.2158 0.592473 17.5904 0.737317 17.285 1.26185C16.9792 1.78544 17.1092 2.48904 17.5746 2.83263C20.3358 4.87122 21.9838 8.29825 21.9838 12.0004C21.9838 15.7026 20.3358 19.1297 17.5746 21.1683C17.1092 21.5114 16.9792 22.2154 17.285 22.7386C17.5783 23.2406 18.1988 23.4211 18.6813 23.0643C22.0113 20.6053 24 16.4686 24 12C24 7.53138 22.0113 3.39513 18.6813 0.936067ZM20 12C20 9.022 18.6642 6.28404 16.4263 4.67622C15.96 4.34154 15.3417 4.49716 15.0462 5.02591C14.7508 5.55466 14.8888 6.2545 15.355 6.58966C17.0113 7.77982 18 9.802 18 12C18 14.1979 17.0113 16.2201 15.355 17.4103C14.8888 17.745 14.7508 18.4448 15.0462 18.974C15.3175 19.4597 15.9263 19.6837 16.4263 19.3237C18.6642 17.7159 20 14.9784 20 12ZM14.0929 8.39669C13.6104 8.09997 13.0017 8.29544 12.7342 8.83966C12.4679 9.38388 12.6442 10.0678 13.1279 10.3683C13.6658 10.7006 14 11.3264 14 12C14 12.674 13.6658 13.2993 13.1283 13.6317C12.6446 13.9322 12.4683 14.6161 12.7346 15.1603C13.0025 15.7068 13.6117 15.9009 14.0933 15.6033C15.2696 14.8743 16.0004 13.4939 16.0004 11.9995C16.0004 10.5051 15.2696 9.12513 14.0929 8.39669Z" fill="white"/>
</svg>