<svg width="18" height="24" viewBox="0 0 18 24" fill="none" xmlns="http://www.w3.org/2000/svg">
<g clip-path="url(#clip0)">
<path d="M10.0795 3.37692L5.90906 7.54693H1.125C0.503437 7.54693 0 8.05036 0 8.67193V15.4219C0 16.043 0.503437 16.5469 1.125 16.5469H5.90906L10.0795 20.7165C10.7841 21.421 12 20.926 12 19.921V4.17286C12 3.16646 10.7831 2.6738 10.0795 3.37692V3.37692ZM15.8545 8.44317C15.3117 8.14646 14.6269 8.34193 14.3259 8.88614C14.0264 9.43036 14.2247 10.1143 14.7689 10.4147C15.3741 10.7475 15.75 11.3729 15.75 12.0469C15.75 12.721 15.3741 13.3463 14.7694 13.6786C14.2252 13.9791 14.0269 14.663 14.3264 15.2072C14.6278 15.7538 15.3131 15.9479 15.855 15.6502C17.1783 14.9213 18.0005 13.5408 18.0005 12.0465C18.0005 10.5521 17.1783 9.17208 15.8545 8.44317Z" fill="white"/>
</g>
<defs>
<clipPath id="clip0">
<rect width="18" height="24" fill="white"/>
</clipPath>
</defs>
</svg>