<?xml version="1.0" standalone="no"?>
<!DOCTYPE svg PUBLIC "-//W3C//DTD SVG 20010904//EN"
 "http://www.w3.org/TR/2001/REC-SVG-20010904/DTD/svg10.dtd">
<svg version="1.0" xmlns="http://www.w3.org/2000/svg"
 width="700.000000pt" height="700.000000pt" viewBox="0 0 700.000000 700.000000"
 preserveAspectRatio="xMidYMid meet">
<metadata>
Created by potrace 1.11, written by Peter Selinger 2001-2013
</metadata>
<g transform="translate(0.000000,700.000000) scale(0.100000,-0.100000)"
fill="#000000" stroke="none">
<path d="M3457 6674 c-1 -1 -63 -4 -137 -8 -740 -35 -1466 -350 -2009 -870
-212 -202 -338 -360 -536 -671 -44 -70 -145 -270 -198 -395 -96 -225 -186
-543 -213 -750 -29 -226 -32 -272 -29 -515 2 -143 5 -273 8 -290 3 -16 8 -52
11 -80 17 -159 80 -428 143 -614 121 -359 358 -784 454 -816 11 -4 21 -32 33
-93 10 -48 21 -105 26 -127 5 -22 12 -56 15 -75 3 -19 8 -42 10 -50 2 -8 7
-31 10 -50 27 -163 65 -271 129 -369 135 -208 376 -341 619 -341 57 0 212 22
259 36 13 4 19 -2 23 -23 24 -108 82 -186 167 -223 161 -69 346 30 375 202 10
61 10 63 -52 368 -31 151 -58 286 -61 300 -3 14 -23 115 -45 225 -23 110 -43
211 -45 225 -3 14 -11 54 -19 90 -8 36 -16 79 -19 97 -4 17 -35 177 -71 355
-36 178 -67 332 -69 343 -2 11 -30 147 -61 303 -31 156 -63 298 -71 317 -51
123 -205 190 -337 147 -62 -20 -140 -89 -162 -144 -20 -51 -27 -131 -15 -181
8 -36 7 -37 -29 -43 -69 -11 -196 -47 -241 -67 -104 -47 -215 -131 -278 -212
-12 -15 -24 -26 -25 -24 -2 2 -13 36 -25 74 -354 1152 122 2387 1168 3024 300
183 704 322 1035 356 33 3 80 8 105 11 118 14 386 5 550 -17 151 -21 257 -44
405 -88 554 -165 1012 -493 1388 -993 15 -20 27 -41 27 -46 0 -5 7 -15 15 -22
25 -21 145 -236 205 -368 98 -214 175 -474 205 -687 3 -23 7 -50 9 -60 2 -11
7 -63 12 -115 16 -206 6 -464 -27 -655 -18 -107 -88 -376 -106 -407 -2 -4 -18
9 -36 30 -113 132 -263 217 -442 251 -115 22 -107 18 -99 53 28 130 -23 249
-134 314 -41 25 -58 28 -127 29 -93 0 -148 -22 -204 -83 -47 -51 -68 -109 -95
-262 -2 -14 -36 -182 -75 -375 -39 -192 -72 -361 -75 -375 -3 -14 -32 -162
-66 -330 -34 -168 -64 -314 -66 -325 -2 -11 -36 -177 -75 -370 -39 -192 -73
-359 -75 -370 -33 -165 -41 -218 -38 -263 6 -95 61 -178 149 -225 31 -17 57
-22 120 -22 63 0 89 5 120 22 89 48 151 141 154 231 1 18 4 21 19 14 43 -23
216 -45 306 -39 305 20 538 194 660 491 13 30 126 558 126 586 0 3 20 20 45
38 62 44 142 167 261 402 114 226 226 548 270 775 2 11 6 31 9 45 9 44 36 223
43 290 15 141 7 611 -12 730 -3 14 -10 59 -16 100 -6 41 -16 91 -20 110 -5 19
-11 46 -14 60 -44 243 -188 618 -334 875 -192 337 -473 672 -747 890 -27 22
-52 42 -55 45 -3 3 -36 28 -75 57 -454 331 -936 520 -1530 599 -42 5 -394 21
-398 18z m1800 -4446 c-3 -7 -5 -2 -5 12 0 14 2 19 5 13 2 -7 2 -19 0 -25z"/>
</g>
</svg>
