<svg width="25" height="24" viewBox="0 0 25 24" fill="none" xmlns="http://www.w3.org/2000/svg">
<path d="M17.0798 0C16.8768 0 16.6765 0.0341092 16.4761 0.0852729C16.0728 0.189732 15.6877 0.38586 15.3521 0.665129L7.52556 7.07765H2.98783C1.87682 7.07765 0.96875 7.82166 0.96875 8.73195V15.2809C0.96875 16.1912 1.87682 16.9352 2.98783 16.9352H7.52556L15.3313 23.2966C16.0754 23.9084 17.0303 24.177 17.8083 23.8764C18.5915 23.5737 18.974 22.8446 18.974 22.0004V1.80779C18.974 0.989166 18.464 0.309114 17.6834 0.0852729C17.4883 0.0298458 17.2827 0 17.0798 0ZM17.1006 1.09149C17.1682 1.09149 17.2203 1.09576 17.2671 1.10855C17.457 1.16184 17.6418 1.30041 17.6418 1.80779V22.0004C17.6418 22.5824 17.4076 22.8425 17.2463 22.9043C17.085 22.9661 16.7597 22.9725 16.2472 22.5462L7.8586 15.6732C7.84559 15.6668 7.82998 15.6604 7.81697 15.6561C7.86641 15.6924 7.65045 15.347 7.65045 15.1445V8.86838C7.65045 8.66586 7.87421 8.31624 7.81697 8.35675C7.83258 8.34609 7.84559 8.33543 7.8586 8.32264L16.2888 1.43259C16.601 1.17463 16.895 1.09363 17.1006 1.09149ZM2.98783 8.20326H6.44316C6.3573 8.41217 6.31827 8.64028 6.31827 8.86838V15.1445C6.31827 15.3726 6.3599 15.5986 6.44316 15.8096H2.98783C2.62877 15.8096 2.34256 15.5751 2.34256 15.2809V8.73195C2.34256 8.43776 2.62877 8.20326 2.98783 8.20326ZM21.3261 8.40791C21.0034 8.43989 20.7589 8.65733 20.7433 8.92381C20.7276 9.18816 20.9462 9.42479 21.2636 9.48235C22.627 9.77441 23.6366 10.7934 23.6366 12.0064C23.6366 13.2194 22.627 14.2384 21.2636 14.5305C20.9072 14.6051 20.6938 14.9036 20.7849 15.1956C20.8759 15.4877 21.2402 15.6625 21.5967 15.5879C23.5351 15.1722 24.9688 13.7183 24.9688 12.0064C24.9688 10.2946 23.5351 8.84067 21.5967 8.42496C21.5082 8.40365 21.4171 8.39938 21.3261 8.40791Z" fill="white"/>
</svg>
